HIERARCHY
ROOT Hips
{
	OFFSET 0.000000 0.000000 0.000000
	CHANNELS 6 Xposition Yposition Zposition Zrotation Yrotation Xrotation 
	JOINT LHipJoint
	{
		OFFSET 0.000000 0.000000 0.000000
		CHANNELS 3 Zrotation Yrotation Xrotation
		JOINT LeftUpLeg
		{
			OFFSET 1.363060 -1.794630 0.839290
			CHANNELS 3 Zrotation Yrotation Xrotation
			JOINT LeftLeg
			{
				OFFSET 2.448110 -6.726130 0.000000
				CHANNELS 3 Zrotation Yrotation Xrotation
				JOINT LeftFoot
				{
					OFFSET 2.562200 -7.039590 0.000000
					CHANNELS 3 Zrotation Yrotation Xrotation
					JOINT LeftToeBase
					{
						OFFSET 0.157640 -0.433110 2.322550
						CHANNELS 3 Zrotation Yrotation Xrotation
						End Site
						{
							OFFSET 0.000000 0.000000 0.000000
						}
					}
				}
			}
		}
	}
	JOINT RHipJoint
	{
		OFFSET 0.000000 0.000000 0.000000
		CHANNELS 3 Zrotation Yrotation Xrotation
		JOINT RightUpLeg
		{
			OFFSET -1.305520 -1.794630 0.839290
			CHANNELS 3 Zrotation Yrotation Xrotation
			JOINT RightLeg
			{
				OFFSET -2.542530 -6.985550 0.000000
				CHANNELS 3 Zrotation Yrotation Xrotation
				JOINT RightFoot
				{
					OFFSET -2.568260 -7.056230 0.000000
					CHANNELS 3 Zrotation Yrotation Xrotation
					JOINT RightToeBase
					{
						OFFSET -0.164730 -0.452590 2.363150
						CHANNELS 3 Zrotation Yrotation Xrotation
						End Site
						{
							OFFSET 0.000000 0.000000 0.000000
						}
					}
				}
			}
		}
	}
	JOINT LowerBack
	{
		OFFSET 0.000000 0.000000 0.000000
		CHANNELS 3 Zrotation Yrotation Xrotation
		JOINT Spine
		{
			OFFSET 0.028270 2.035590 -0.193380
			CHANNELS 3 Zrotation Yrotation Xrotation
			JOINT Spine1
			{
				OFFSET 0.056720 2.048850 -0.042750
				CHANNELS 3 Zrotation Yrotation Xrotation
				JOINT Neck
				{
					OFFSET 0.000000 0.000000 0.000000
					CHANNELS 3 Zrotation Yrotation Xrotation
					JOINT Neck1
					{
						OFFSET -0.054170 1.746240 0.172020
						CHANNELS 3 Zrotation Yrotation Xrotation
						JOINT Head
						{
							OFFSET 0.104070 1.761360 -0.123970
							CHANNELS 3 Zrotation Yrotation Xrotation
							End Site
							{
								OFFSET 0.000000 0.000000 0.000000
							}
						}
					}
				}
				JOINT LeftShoulder
				{
					OFFSET 0.000000 0.000000 0.000000
					CHANNELS 3 Zrotation Yrotation Xrotation
					JOINT LeftArm
					{
						OFFSET 3.362410 1.200890 -0.311210
						CHANNELS 3 Zrotation Yrotation Xrotation
						JOINT LeftForeArm
						{
							OFFSET 4.983000 -0.000000 -0.000000
							CHANNELS 3 Zrotation Yrotation Xrotation
							JOINT LeftHand
							{
								OFFSET 3.483560 -0.000000 -0.000000
								CHANNELS 3 Zrotation Yrotation Xrotation
								JOINT LeftFingerBase
								{
									OFFSET 0.000000 0.000000 0.000000
									CHANNELS 3 Zrotation Yrotation Xrotation
									JOINT LeftHandIndex1
									{
										OFFSET 0.715260 -0.000000 -0.000000
										CHANNELS 3 Zrotation Yrotation Xrotation
										End Site
										{
											OFFSET 0.000000 0.000000 0.000000
										}
									}
								}
								JOINT LThumb
								{
									OFFSET 0.000000 0.000000 0.000000
									CHANNELS 3 Zrotation Yrotation Xrotation
									End Site
									{
										OFFSET 0.000000 0.000000 0.000000
									}
								}
							}
						}
					}
				}
				JOINT RightShoulder
				{
					OFFSET 0.000000 0.000000 0.000000
					CHANNELS 3 Zrotation Yrotation Xrotation
					JOINT RightArm
					{
						OFFSET -3.136600 1.374050 -0.404650
						CHANNELS 3 Zrotation Yrotation Xrotation
						JOINT RightForeArm
						{
							OFFSET -5.241900 -0.000000 -0.000000
							CHANNELS 3 Zrotation Yrotation Xrotation
							JOINT RightHand
							{
								OFFSET -3.444170 -0.000000 -0.000000
								CHANNELS 3 Zrotation Yrotation Xrotation
								JOINT RightFingerBase
								{
									OFFSET 0.000000 0.000000 0.000000
									CHANNELS 3 Zrotation Yrotation Xrotation
									JOINT RightHandIndex1
									{
										OFFSET -0.622530 -0.000000 -0.000000
										CHANNELS 3 Zrotation Yrotation Xrotation
										End Site
										{
											OFFSET 0.000000 0.000000 0.000000
										}
									}
								}
								JOINT RThumb
								{
									OFFSET 0.000000 0.000000 0.000000
									CHANNELS 3 Zrotation Yrotation Xrotation
									End Site
									{
										OFFSET 0.000000 0.000000 0.000000
									}
								}
							}
						}
					}
				}
			}
		}
	}
}
MOTION
Frames: 6
Frame Time: 0.008333
0.796494 17.778945 9.045749 -9.621160 52.599663 51.207236 6.462553 1.865769 4.566864 -13.653183 -4.795802 -67.408178 -1.300772 -0.667778 -5.212724 7.343146 -27.388093 52.089123 2.598000 10.014000 29.022100 -3.876942 1.201475 1.871071 0.544316 41.034111 -39.619846 4.010769 0.765196 -5.126751 -1.727224 -37.865673 -68.490415 -6.694200 -15.068900 47.708000 -2.097622 -0.903677 30.230264 -10.744351 2.907088 42.899221 -0.468260 2.143164 -32.185883 -6.266586 1.418781 -18.014760 5.626883 2.106666 -10.153221 0.826800 0.482700 -0.134900 0.093812 -5.918348 -2.317055 -86.255447 4.886186 34.964836 159.065492 -28.292455 -114.238056 0.321781 1.287138 -50.358877 -70.667409 -3.794872 15.641100 -7.125000 0.000000 0.000000 -60.907800 -39.243400 115.483700 9.866582 5.175716 -2.490017 68.915944 -8.199124 40.940938 -157.651320 29.625543 -114.563902 2.773851 0.553532 -56.957930 68.767887 -42.005944 -56.796300 7.125000 0.000000 0.000000 95.029700 -49.723500 -39.252400 
0.792610 17.776531 9.053935 -9.281943 52.769107 51.842452 6.521656 1.824669 4.590731 -13.634490 -5.062528 -67.884414 -1.312139 -0.599715 -5.069233 7.312075 -27.474216 52.046913 2.583400 9.988000 28.937800 -3.940692 1.176166 1.891929 0.187845 40.779592 -40.262370 4.006313 0.654247 -5.035796 -1.579075 -38.006445 -68.365729 -6.697000 -15.071300 47.718700 -2.547253 -0.386950 29.961794 -9.912436 3.017629 43.417503 -0.350598 2.396921 -31.922111 -6.824228 1.275292 -17.026371 5.787776 1.853377 -10.077829 0.983600 0.356000 -0.223700 0.045821 -6.099362 -2.394195 -88.090884 0.993167 39.130264 158.166575 -29.440788 -113.870388 0.247917 1.265363 -52.070422 -69.645397 -3.401845 13.670100 -7.125000 0.000000 0.000000 -57.559500 -36.529500 110.454500 9.608246 5.422673 -2.500478 72.812192 -5.839286 41.913960 -157.427180 30.105349 -114.352149 2.704234 0.439149 -57.613231 68.301306 -44.352923 -57.558500 7.125000 0.000000 0.000000 98.503500 -50.016000 -45.645000 
0.783899 17.768450 9.045539 -9.325930 53.056581 52.148922 6.577010 1.822590 4.614697 -13.418953 -5.345779 -68.455764 -1.317934 -0.472787 -4.878562 7.071213 -28.068537 51.642829 2.378300 9.613200 27.733100 -4.005919 1.160890 1.901831 0.135219 40.637182 -40.876932 4.004363 0.564676 -4.965969 -1.463266 -38.157786 -68.265517 -6.702400 -15.076100 47.739600 -2.544208 0.093828 29.778676 -9.178068 3.279694 43.877781 -0.437923 2.622307 -31.632802 -6.385355 0.972084 -15.788965 5.058767 1.227309 -10.201243 0.798800 0.042100 -0.390900 -0.035814 -6.245935 -2.458908 -89.385958 -2.019792 43.006719 157.158013 -30.678168 -113.398673 0.252873 1.238033 -53.297364 -71.438863 -3.106958 14.279800 -7.125000 0.000000 0.000000 -61.796300 -39.979900 116.439400 9.294252 5.664885 -2.485269 76.800265 -3.113545 43.434456 -157.094103 30.723368 -114.083910 2.651662 0.322681 -59.268088 68.149320 -48.130432 -59.249300 7.125000 0.000000 0.000000 103.756900 -50.265300 -55.280400 
0.775608 17.760998 9.045644 -9.110431 53.151464 52.587619 6.609039 1.811607 4.633647 -13.407606 -5.571673 -68.816850 -1.321463 -0.434671 -4.815448 7.076853 -28.073797 51.652718 2.397400 9.648800 27.846900 -4.056418 1.157309 1.891991 -0.035302 40.451343 -41.263463 3.997201 0.523380 -4.965250 -1.371148 -38.187877 -68.159202 -6.690000 -15.065200 47.692000 -2.734503 0.438108 29.968155 -8.837728 3.458357 44.181493 -0.384420 2.785204 -31.560278 -6.101147 0.683504 -15.642110 4.660983 0.766648 -8.291664 0.681500 -0.125100 0.053100 -0.076948 -6.273067 -2.462354 -89.591980 -4.197872 45.820708 156.152110 -31.807731 -112.912989 0.289745 1.221720 -54.362447 -73.831500 -2.629928 15.021100 -7.125000 0.000000 0.000000 -121.350200 38.285000 -69.913700 9.091889 5.866301 -2.409807 79.175785 -1.399669 44.442228 -156.880884 31.097041 -113.932929 2.603075 0.239695 -59.826993 67.594394 -50.182654 -59.523500 7.125000 0.000000 0.000000 106.005200 -50.513300 -59.825200 
0.767631 17.752812 9.054565 -8.713475 53.189969 53.300163 6.660256 1.774915 4.650827 -13.421586 -5.735481 -69.234666 -1.324999 -0.455813 -4.795458 7.367463 -27.334890 52.080774 2.667500 10.136300 29.419200 -4.112779 1.154955 1.875328 -0.398313 40.238710 -41.757079 3.979590 0.478359 -4.987313 -1.272427 -38.171527 -68.046984 -6.665900 -15.044000 47.599200 -3.165158 0.716675 30.198375 -8.470249 3.467738 44.454089 -0.216942 2.913469 -31.399484 -5.810178 0.546782 -15.288307 4.019566 0.480776 -7.191084 0.495600 -0.231300 0.280100 -0.142044 -6.267216 -2.459028 -88.628253 -5.857913 47.434196 155.478202 -32.435066 -112.622057 0.250433 1.232306 -55.872512 -73.244641 -2.112139 12.738200 -7.125000 0.000000 0.000000 -119.029300 39.843500 -65.966900 8.985072 5.999531 -2.349171 79.016024 -0.865390 45.769618 -156.886041 31.024742 -113.949421 2.595938 0.214489 -60.728254 66.306175 -51.340990 -58.507000 7.125000 0.000000 0.000000 106.563100 -50.952700 -61.709800 
0.753043 17.734970 9.023708 -8.664500 53.933560 54.539738 6.818527 1.810130 4.725220 -12.639403 -6.550535 -70.899353 -1.327255 -0.244791 -4.445915 7.388179 -27.188112 51.921838 2.656900 10.117800 29.359000 -4.288526 1.230288 1.768015 -0.812848 39.779296 -43.426804 3.945248 0.308431 -4.911227 -1.178906 -38.142676 -68.012451 -6.674400 -15.051500 47.631900 -2.506562 0.464537 29.554072 -7.906330 3.290261 44.781696 -0.617741 2.766699 -30.724529 -5.831704 0.583213 -14.597468 3.535541 0.398968 -7.619144 0.376500 -0.288100 0.123600 -0.203326 -6.379394 -2.468168 -87.652600 -6.179857 47.786176 155.313358 -32.501717 -112.574932 0.210714 1.248023 -57.033590 -71.996318 -1.430737 9.598500 -7.125000 0.000000 0.000000 -60.186400 -39.071900 113.423500 8.918323 5.989682 -2.332239 78.039491 -0.303298 46.826123 -156.655122 31.145016 -113.863494 2.561887 0.177175 -61.247323 64.938795 -52.207992 -57.321000 7.125000 0.000000 0.000000 106.729800 -51.407500 -62.885500 
